<?xml version="1.0" encoding="UTF-8"?><svg width="200" id="_128" xmlns="http://www.w3.org/2000/svg" xmlns:xlink="http://www.w3.org/1999/xlink" viewBox="0 0 343.32 71.54"><defs><style>.cls-1{fill:#faa91a;}.cls-2{filter:url(#outer-glow-10);}.cls-2,.cls-3,.cls-4,.cls-5,.cls-6,.cls-7{fill:#18112a;}.cls-3{filter:url(#outer-glow-5);}.cls-4{filter:url(#outer-glow-9);}.cls-5{filter:url(#outer-glow-6);}.cls-6{filter:url(#outer-glow-8);}.cls-7{filter:url(#outer-glow-7);}</style><filter id="outer-glow-5" x="130.06" y="3.84" width="49.68" height="57.36" filterUnits="userSpaceOnUse"><feOffset dx="0" dy="0"/><feGaussianBlur result="blur" stdDeviation="2"/><feFlood flood-color="#fbfefe" flood-opacity=".8"/><feComposite in2="blur" operator="in"/><feComposite in="SourceGraphic"/></filter><filter id="outer-glow-6" x="171.34" y="3.36" width="40.08" height="57.36" filterUnits="userSpaceOnUse"><feOffset dx="0" dy="0"/><feGaussianBlur result="blur-2" stdDeviation="2"/><feFlood flood-color="#fbfefe" flood-opacity=".8"/><feComposite in2="blur-2" operator="in"/><feComposite in="SourceGraphic"/></filter><filter id="outer-glow-7" x="204.7" y="16.8" width="43.2" height="44.4" filterUnits="userSpaceOnUse"><feOffset dx="0" dy="0"/><feGaussianBlur result="blur-3" stdDeviation="2"/><feFlood flood-color="#fbfefe" flood-opacity=".8"/><feComposite in2="blur-3" operator="in"/><feComposite in="SourceGraphic"/></filter><filter id="outer-glow-8" x="239.74" y="16.8" width="43.44" height="44.4" filterUnits="userSpaceOnUse"><feOffset dx="0" dy="0"/><feGaussianBlur result="blur-4" stdDeviation="2"/><feFlood flood-color="#fbfefe" flood-opacity=".8"/><feComposite in2="blur-4" operator="in"/><feComposite in="SourceGraphic"/></filter><filter id="outer-glow-9" x="274.3" y="16.8" width="35.76" height="44.4" filterUnits="userSpaceOnUse"><feOffset dx="0" dy="0"/><feGaussianBlur result="blur-5" stdDeviation="2"/><feFlood flood-color="#fbfefe" flood-opacity=".8"/><feComposite in2="blur-5" operator="in"/><feComposite in="SourceGraphic"/></filter><filter id="outer-glow-10" x="301.9" y="16.32" width="40.8" height="44.64" filterUnits="userSpaceOnUse"><feOffset dx="0" dy="0"/><feGaussianBlur result="blur-6" stdDeviation="2"/><feFlood flood-color="#fbfefe" flood-opacity=".8"/><feComposite in2="blur-6" operator="in"/><feComposite in="SourceGraphic"/></filter></defs><path class="cls-1" d="M39.99,23.54l-.51,2.89c-.15.71-.45,1.24-.9,1.59-.45.35-1.17.52-2.16.52h-3.26l-1.48,8h4.35c.71,0,1.22.21,1.53.63.31.42.39,1.15.24,2.18l-.37,2.19h-6.15l-2.42,13h-3.63c-.36,0-.7-.08-1.02-.26-.32-.17-.58-.4-.8-.7-.21-.3-.37-.64-.46-1.04-.1-.39-.09-.81.02-1.26l1.85-9.75h-6.5l-1.88,10.13c-.17,1.02-.59,1.75-1.27,2.2s-1.43.67-2.26.67h-3.5l2.42-13h-3.25c-.71,0-1.22-.21-1.52-.63-.3-.42-.37-1.14-.22-2.15l.37-2.22h5.81l1.48-8h-6.34l.53-2.89c.15-.71.45-1.24.9-1.59.45-.35,1.17-.52,2.16-.52h3.09l1.95-10.31c.17-.85.57-1.52,1.18-1.99.62-.47,1.35-.7,2.18-.7h3.62l-2.47,13h6.56l2.47-13h3.52c.81,0,1.46.26,1.95.78.49.52.67,1.18.54,1.97l-1.95,10.25h5.59ZM26.8,28.54h-5.94l-1.48,8h5.94l1.48-8Z"/><path class="cls-1" d="M76.4,17.54h-13v37h-8V17.54h-14v-7h35v7Z"/><path class="cls-1" d="M74.96,27.54c3.43-3.3,7.55-4.95,12.37-4.95,1.74,0,3.3.3,4.68.9s2.54,1.44,3.49,2.51c.95,1.07,1.67,2.35,2.16,3.84.49,1.49.74,3.12.74,4.89v19.81h-3.25c-.68,0-1.2-.11-1.57-.32-.37-.21-.66-.65-.87-1.3l-.64-2.26c-.75.71-1.49,1.34-2.21,1.88-.72.54-1.46.99-2.24,1.36-.78.37-1.6.65-2.48.84s-1.85.29-2.92.29c-1.26,0-2.42-.18-3.48-.53s-1.99-.89-2.76-1.61c-.78-.71-1.38-1.6-1.8-2.66-.43-1.06-.64-2.29-.64-3.7,0-.8.13-1.58.38-2.37.25-.78.66-1.53,1.23-2.25.57-.71,1.31-1.39,2.22-2.02.91-.63,2.03-1.18,3.35-1.65,1.33-.47,2.87-.85,4.63-1.15,1.76-.3,3.78-.47,6.04-.53v-1.83c0-2.1-.43-3.65-1.28-4.66-.85-1.01-2.08-1.51-3.69-1.51-1.16,0-2.13.14-2.89.43-.77.29-1.44.61-2.02.96-.58.36-1.11.68-1.58.96-.47.29-1,.43-1.58.43-.5,0-.93-.14-1.28-.41-.35-.28-.63-.6-.84-.96l-1.28-2.42ZM91.4,41.3c-2.18.1-4.02.29-5.5.57-1.49.28-2.68.63-3.58,1.05-.9.43-1.54.93-1.93,1.5-.39.57-.58,1.19-.58,1.86,0,1.33.39,2.27,1.18,2.84.78.57,1.81.86,3.07.86,1.55,0,2.89-.28,4.02-.84,1.13-.56,2.24-1.41,3.32-2.55v-5.29Z"/><path class="cls-1" d="M133.4,24.54v2.81c0,.9-.54,1.45-1.62,1.65l-2.81.52c.43,1.08.64,2.26.64,3.55,0,1.55-.31,2.95-.93,4.2-.62,1.25-1.48,2.32-2.58,3.19-1.1.88-2.4,1.55-3.9,2.03-1.5.48-3.11.72-4.85.72-.61,0-1.2-.03-1.77-.09-.57-.06-1.13-.14-1.68-.24-.98.59-1.47,1.25-1.47,1.99,0,.63.29,1.1.87,1.39.58.3,1.35.5,2.31.63.96.12,2.05.2,3.27.23,1.22.03,2.48.1,3.76.2,1.28.1,2.54.28,3.76.53,1.22.26,2.31.66,3.27,1.21.96.55,1.73,1.3,2.31,2.25.58.95.87,2.17.87,3.65,0,1.39-.34,2.73-1.02,4.04-.68,1.3-1.67,2.47-2.97,3.49-1.29,1.02-2.88,1.84-4.77,2.46-1.89.62-4.03.93-6.44.93s-4.42-.23-6.17-.69c-1.75-.46-3.21-1.07-4.37-1.83-1.16-.76-2.03-1.65-2.6-2.64-.57-1-.86-2.04-.86-3.12,0-1.47.44-2.7,1.33-3.68.89-.99,2.1-1.78,3.65-2.37-.84-.43-1.5-1-1.99-1.71-.49-.71-.73-1.65-.73-2.81,0-.47.09-.95.26-1.45.17-.5.43-.99.76-1.48s.76-.95,1.27-1.39c.51-.44,1.11-.83,1.8-1.18-1.59-.86-2.84-2-3.74-3.42-.91-1.43-1.36-3.1-1.36-5.01,0-1.55.31-2.95.93-4.2.62-1.25,1.49-2.32,2.6-3.21,1.11-.89,2.43-1.56,3.94-2.03,1.52-.47,3.17-.7,4.97-.7,1.35,0,2.61.14,3.79.41s2.26.68,3.24,1.21h9.02ZM125.72,56.1c0-.61-.18-1.11-.55-1.5-.37-.39-.87-.69-1.5-.9s-1.37-.37-2.22-.47-1.74-.18-2.69-.23c-.95-.05-1.93-.1-2.93-.14s-1.99-.12-2.95-.24c-.84.47-1.51,1.02-2.03,1.65-.52.63-.78,1.37-.78,2.2,0,.55.14,1.06.41,1.54.27.48.71.89,1.31,1.24.6.35,1.38.62,2.34.81.96.19,2.13.29,3.52.29s2.62-.11,3.64-.32,1.86-.51,2.52-.89c.66-.38,1.15-.83,1.45-1.35.31-.52.46-1.09.46-1.7ZM117.19,38.24c.94,0,1.75-.13,2.45-.38.69-.25,1.27-.61,1.73-1.05s.81-.99,1.04-1.62c.23-.63.35-1.32.35-2.08,0-1.55-.46-2.78-1.39-3.68-.93-.91-2.32-1.36-4.17-1.36s-3.25.45-4.17,1.36c-.93.91-1.39,2.14-1.39,3.68,0,.73.12,1.42.35,2.05.23.63.58,1.18,1.04,1.64.46.46,1.04.82,1.74,1.07.7.26,1.51.38,2.43.38Z"/><path class="cls-3" d="M169.13,44.27c.45,0,.84.17,1.19.52l3.24,3.52c-1.79,2.22-4,3.92-6.62,5.11-2.62,1.18-5.76,1.77-9.43,1.77-3.28,0-6.23-.56-8.85-1.68-2.62-1.12-4.86-2.68-6.71-4.68-1.85-2-3.28-4.38-4.27-7.15s-1.48-5.8-1.48-9.08.53-6.36,1.59-9.13c1.06-2.76,2.55-5.14,4.48-7.14,1.93-2,4.22-3.55,6.89-4.66,2.67-1.11,5.62-1.67,8.87-1.67s6.08.53,8.57,1.59c2.5,1.06,4.62,2.45,6.38,4.16l-2.75,3.82c-.16.24-.37.46-.63.64-.25.18-.61.28-1.05.28-.31,0-.62-.09-.95-.26-.33-.17-.68-.39-1.07-.64-.39-.25-.84-.53-1.35-.84-.51-.31-1.1-.59-1.77-.84-.67-.25-1.45-.47-2.34-.64s-1.91-.26-3.07-.26c-1.98,0-3.79.35-5.43,1.05-1.64.7-3.05,1.72-4.23,3.06-1.18,1.34-2.1,2.97-2.75,4.89-.65,1.93-.98,4.12-.98,6.59s.35,4.7,1.05,6.63c.7,1.94,1.66,3.57,2.86,4.89,1.2,1.33,2.62,2.34,4.25,3.04,1.63.7,3.38,1.05,5.26,1.05,1.12,0,2.13-.06,3.04-.18s1.74-.32,2.51-.58c.76-.26,1.49-.61,2.17-1.02.68-.42,1.36-.93,2.03-1.54.2-.18.42-.33.64-.44s.46-.17.7-.17Z"/><path class="cls-5" d="M185.4,26.8c1.24-1.13,2.6-2.05,4.08-2.76,1.48-.71,3.22-1.06,5.22-1.06,1.73,0,3.27.29,4.61.86,1.34.58,2.46,1.38,3.35,2.42.9,1.04,1.58,2.28,2.04,3.72.46,1.44.7,3.03.7,4.77v19.77h-8v-19.96c0-1.92-.43-3.4-1.29-4.45-.86-1.05-2.17-1.57-3.93-1.57-1.28,0-2.48.3-3.6.89s-2.18,1.4-3.18,2.42v22.68h-8V9.54h8v17.26Z"/><path class="cls-7" d="M226.39,22.84c2.32,0,4.44.38,6.34,1.13,1.91.75,3.54,1.82,4.89,3.21,1.36,1.39,2.4,3.08,3.13,5.07.73,2,1.1,4.23,1.1,6.69s-.37,4.73-1.1,6.73c-.73,2-1.78,3.7-3.13,5.11-1.36,1.41-2.99,2.49-4.89,3.24s-4.02,1.13-6.34,1.13-4.47-.38-6.39-1.13-3.55-1.83-4.91-3.24c-1.36-1.41-2.41-3.11-3.15-5.11-.74-2-1.12-4.24-1.12-6.73s.37-4.7,1.12-6.69c.74-2,1.79-3.69,3.15-5.07,1.35-1.39,2.99-2.46,4.91-3.21,1.92-.75,4.05-1.13,6.39-1.13ZM226.39,49.34c2.61,0,4.54-.88,5.79-2.63,1.25-1.75,1.88-4.32,1.88-7.7s-.63-5.96-1.88-7.73c-1.25-1.77-3.18-2.66-5.79-2.66s-4.61.89-5.89,2.68-1.91,4.36-1.91,7.72.64,5.93,1.91,7.69c1.27,1.76,3.24,2.64,5.89,2.64Z"/><path class="cls-6" d="M261.52,22.84c2.32,0,4.44.38,6.34,1.13,1.91.75,3.54,1.82,4.89,3.21,1.36,1.39,2.4,3.08,3.13,5.07.73,2,1.1,4.23,1.1,6.69s-.37,4.73-1.1,6.73c-.73,2-1.78,3.7-3.13,5.11-1.36,1.41-2.99,2.49-4.89,3.24s-4.02,1.13-6.34,1.13-4.47-.38-6.39-1.13-3.55-1.83-4.91-3.24c-1.36-1.41-2.41-3.11-3.15-5.11-.74-2-1.12-4.24-1.12-6.73s.37-4.7,1.12-6.69c.74-2,1.79-3.69,3.15-5.07,1.35-1.39,2.99-2.46,4.91-3.21,1.92-.75,4.05-1.13,6.39-1.13ZM261.52,49.34c2.61,0,4.54-.88,5.79-2.63,1.25-1.75,1.88-4.32,1.88-7.7s-.63-5.96-1.88-7.73c-1.25-1.77-3.18-2.66-5.79-2.66s-4.61.89-5.89,2.68-1.91,4.36-1.91,7.72.64,5.93,1.91,7.69c1.27,1.76,3.24,2.64,5.89,2.64Z"/><path class="cls-4" d="M301.9,29.44c-.2.33-.42.56-.64.69-.22.13-.51.2-.86.2-.37,0-.76-.1-1.18-.31-.42-.2-.9-.43-1.45-.69s-1.18-.48-1.88-.69c-.7-.2-1.53-.31-2.49-.31-1.49,0-2.65.32-3.5.95-.85.63-1.27,1.46-1.27,2.48,0,.67.22,1.24.66,1.7.44.46,1.02.86,1.74,1.21.72.35,1.54.66,2.46.93.92.28,1.85.58,2.8.9.95.33,1.88.7,2.8,1.12.92.42,1.74.95,2.46,1.59.72.64,1.3,1.41,1.74,2.31.44.9.66,1.98.66,3.24,0,1.51-.27,2.9-.81,4.17-.54,1.27-1.34,2.37-2.4,3.3-1.06.93-2.37,1.65-3.93,2.17-1.56.52-3.36.78-5.4.78-1.08,0-2.14-.1-3.16-.29s-2.02-.46-2.97-.81c-.95-.35-1.82-.75-2.63-1.22s-1.51-.98-2.12-1.53l1.74-2.87c.22-.35.49-.61.8-.79.31-.18.69-.28,1.16-.28s.91.13,1.33.4c.42.26.9.55,1.45.86.55.31,1.2.59,1.94.86.74.27,1.69.4,2.83.4.9,0,1.67-.11,2.31-.32.64-.21,1.17-.49,1.59-.84.42-.35.72-.75.92-1.21.19-.46.29-.93.29-1.42,0-.73-.22-1.33-.66-1.8-.44-.47-1.02-.88-1.74-1.22-.72-.35-1.55-.66-2.48-.93-.93-.28-1.88-.58-2.84-.9-.97-.33-1.92-.71-2.84-1.15-.93-.44-1.75-.99-2.48-1.67s-1.3-1.5-1.74-2.48c-.44-.98-.66-2.16-.66-3.55,0-1.28.25-2.51.76-3.67.51-1.16,1.26-2.17,2.25-3.04.99-.87,2.22-1.56,3.7-2.08,1.48-.52,3.18-.78,5.12-.78,2.16,0,4.13.36,5.9,1.07,1.77.71,3.25,1.65,4.43,2.81l-1.71,2.72Z"/><path class="cls-2" d="M315.44,39.54c.12,1.61.41,3,.86,4.17.45,1.17,1.04,2.14,1.77,2.9.73.76,1.6,1.34,2.61,1.71s2.12.57,3.35.57,2.28-.14,3.16-.43c.89-.29,1.66-.6,2.32-.95.66-.35,1.24-.66,1.74-.95.5-.29.98-.43,1.45-.43.63,0,1.1.23,1.41.7l2.17,2.75c-.84.98-1.77,1.8-2.81,2.46-1.04.66-2.12,1.19-3.26,1.59-1.13.4-2.28.68-3.46.84-1.17.16-2.31.24-3.41.24-2.18,0-4.21-.36-6.08-1.09-1.88-.72-3.51-1.79-4.89-3.21-1.39-1.42-2.48-3.17-3.27-5.26-.8-2.09-1.19-4.51-1.19-7.26,0-2.14.35-4.15,1.04-6.04.69-1.88,1.69-3.53,2.98-4.92,1.29-1.4,2.87-2.5,4.74-3.32,1.86-.82,3.97-1.22,6.31-1.22,1.98,0,3.8.32,5.47.95,1.67.63,3.11,1.55,4.31,2.77,1.2,1.21,2.14,2.7,2.83,4.46s1.03,3.78,1.03,6.04c0,1.14-.12,1.91-.37,2.31s-.71.6-1.41.6h-19.41ZM329.84,35.54c0-.98-.14-1.9-.41-2.77-.27-.87-.69-1.63-1.24-2.28s-1.25-1.17-2.09-1.54c-.85-.38-1.83-.57-2.95-.57-2.18,0-3.9.62-5.15,1.86-1.25,1.24-2.05,3.01-2.4,5.29h14.25Z"/></svg>